<mxfile host="app.diagrams.net" modified="2023-06-04T16:04:58.474Z" agent="Mozilla/5.0 (Windows NT 10.0; Win64; x64) AppleWebKit/537.36 (KHTML, like Gecko) Chrome/114.0.0.0 Safari/537.36" etag="kgtksSRrTzlDtm4AFDGu" version="21.3.2" type="github">
  <diagram id="prtHgNgQTEPvFCAcTncT" name="Page-1">
    <mxGraphModel dx="600" dy="607" grid="1" gridSize="10" guides="1" tooltips="1" connect="1" arrows="1" fold="1" page="1" pageScale="1" pageWidth="827" pageHeight="1169" math="0" shadow="0">
      <root>
        <mxCell id="0" />
        <mxCell id="1" parent="0" />
        <mxCell id="dNxyNK7c78bLwvsdeMH5-11" value="Вхідні дані" style="swimlane;html=1;startSize=20;horizontal=1;containerType=tree;glass=0;" parent="1" vertex="1">
          <mxGeometry x="20" y="50" width="560" height="400" as="geometry" />
        </mxCell>
        <mxCell id="zfnSIglleL8xlRUQfMg4-20" style="edgeStyle=none;curved=1;rounded=0;orthogonalLoop=1;jettySize=auto;html=1;entryX=0.5;entryY=0;entryDx=0;entryDy=0;fontSize=12;startSize=8;endSize=8;" edge="1" parent="dNxyNK7c78bLwvsdeMH5-11" source="dNxyNK7c78bLwvsdeMH5-12" target="zfnSIglleL8xlRUQfMg4-19">
          <mxGeometry relative="1" as="geometry" />
        </mxCell>
        <UserObject label="Користувачські команди та запити &lt;br&gt;&amp;nbsp; &amp;nbsp; &amp;nbsp; &amp;nbsp; &amp;nbsp; &amp;nbsp; &amp;nbsp; &amp;nbsp; &amp;nbsp; &amp;nbsp;до бота" name="Tessa Miller" position="CFO" location="Office 1" email="me@example.com" placeholders="1" link="https://www.draw.io" id="dNxyNK7c78bLwvsdeMH5-12">
          <mxCell style="label;image=https://cdn3.iconfinder.com/data/icons/user-avatars-1/512/users-3-128.png;whiteSpace=wrap;html=1;rounded=0;glass=0;treeMoving=1;treeFolding=1;" parent="dNxyNK7c78bLwvsdeMH5-11" vertex="1">
            <mxGeometry x="140" y="30" width="280" height="70" as="geometry" />
          </mxCell>
        </UserObject>
        <mxCell id="zfnSIglleL8xlRUQfMg4-44" style="edgeStyle=none;curved=1;rounded=0;orthogonalLoop=1;jettySize=auto;html=1;exitX=1;exitY=0.5;exitDx=0;exitDy=0;entryX=0;entryY=0;entryDx=0;entryDy=0;fontSize=12;startSize=8;endSize=8;" edge="1" parent="dNxyNK7c78bLwvsdeMH5-11" source="zfnSIglleL8xlRUQfMg4-19" target="zfnSIglleL8xlRUQfMg4-36">
          <mxGeometry relative="1" as="geometry" />
        </mxCell>
        <mxCell id="zfnSIglleL8xlRUQfMg4-45" style="edgeStyle=none;curved=1;rounded=0;orthogonalLoop=1;jettySize=auto;html=1;exitX=1;exitY=1;exitDx=0;exitDy=0;entryX=0;entryY=0;entryDx=0;entryDy=0;fontSize=12;startSize=8;endSize=8;" edge="1" parent="dNxyNK7c78bLwvsdeMH5-11" source="zfnSIglleL8xlRUQfMg4-19" target="zfnSIglleL8xlRUQfMg4-39">
          <mxGeometry relative="1" as="geometry" />
        </mxCell>
        <mxCell id="zfnSIglleL8xlRUQfMg4-46" style="edgeStyle=none;curved=1;rounded=0;orthogonalLoop=1;jettySize=auto;html=1;exitX=1;exitY=1;exitDx=0;exitDy=0;entryX=0.5;entryY=0;entryDx=0;entryDy=0;fontSize=12;startSize=8;endSize=8;" edge="1" parent="dNxyNK7c78bLwvsdeMH5-11" source="zfnSIglleL8xlRUQfMg4-19" target="zfnSIglleL8xlRUQfMg4-42">
          <mxGeometry relative="1" as="geometry" />
        </mxCell>
        <mxCell id="zfnSIglleL8xlRUQfMg4-47" style="edgeStyle=none;curved=1;rounded=0;orthogonalLoop=1;jettySize=auto;html=1;fontSize=12;startSize=8;endSize=8;" edge="1" parent="dNxyNK7c78bLwvsdeMH5-11" source="zfnSIglleL8xlRUQfMg4-19" target="zfnSIglleL8xlRUQfMg4-40">
          <mxGeometry relative="1" as="geometry" />
        </mxCell>
        <mxCell id="zfnSIglleL8xlRUQfMg4-49" style="edgeStyle=none;curved=1;rounded=0;orthogonalLoop=1;jettySize=auto;html=1;exitX=0;exitY=1;exitDx=0;exitDy=0;entryX=1;entryY=0;entryDx=0;entryDy=0;fontSize=12;startSize=8;endSize=8;" edge="1" parent="dNxyNK7c78bLwvsdeMH5-11" source="zfnSIglleL8xlRUQfMg4-19" target="zfnSIglleL8xlRUQfMg4-41">
          <mxGeometry relative="1" as="geometry" />
        </mxCell>
        <mxCell id="zfnSIglleL8xlRUQfMg4-51" style="edgeStyle=none;curved=1;rounded=0;orthogonalLoop=1;jettySize=auto;html=1;exitX=0;exitY=0.5;exitDx=0;exitDy=0;entryX=1;entryY=0;entryDx=0;entryDy=0;fontSize=12;startSize=8;endSize=8;" edge="1" parent="dNxyNK7c78bLwvsdeMH5-11" source="zfnSIglleL8xlRUQfMg4-19" target="zfnSIglleL8xlRUQfMg4-33">
          <mxGeometry relative="1" as="geometry" />
        </mxCell>
        <mxCell id="zfnSIglleL8xlRUQfMg4-19" value="/start" style="ellipse;whiteSpace=wrap;html=1;fontSize=16;" vertex="1" parent="dNxyNK7c78bLwvsdeMH5-11">
          <mxGeometry x="247.5" y="140" width="65" height="40" as="geometry" />
        </mxCell>
        <mxCell id="zfnSIglleL8xlRUQfMg4-52" style="edgeStyle=none;curved=1;rounded=0;orthogonalLoop=1;jettySize=auto;html=1;exitX=0.5;exitY=1;exitDx=0;exitDy=0;fontSize=12;startSize=8;endSize=8;" edge="1" parent="dNxyNK7c78bLwvsdeMH5-11" source="zfnSIglleL8xlRUQfMg4-33" target="zfnSIglleL8xlRUQfMg4-35">
          <mxGeometry relative="1" as="geometry" />
        </mxCell>
        <mxCell id="zfnSIglleL8xlRUQfMg4-33" value="Add Task" style="ellipse;whiteSpace=wrap;html=1;fontSize=16;" vertex="1" parent="dNxyNK7c78bLwvsdeMH5-11">
          <mxGeometry x="5" y="210" width="100" height="40" as="geometry" />
        </mxCell>
        <mxCell id="zfnSIglleL8xlRUQfMg4-42" value="Delete Task" style="ellipse;whiteSpace=wrap;html=1;fontSize=16;" vertex="1" parent="dNxyNK7c78bLwvsdeMH5-11">
          <mxGeometry x="394" y="340" width="100" height="40" as="geometry" />
        </mxCell>
        <mxCell id="zfnSIglleL8xlRUQfMg4-50" style="edgeStyle=none;curved=1;rounded=0;orthogonalLoop=1;jettySize=auto;html=1;exitX=0.5;exitY=1;exitDx=0;exitDy=0;entryX=0.5;entryY=0;entryDx=0;entryDy=0;fontSize=12;startSize=8;endSize=8;" edge="1" parent="dNxyNK7c78bLwvsdeMH5-11" source="zfnSIglleL8xlRUQfMg4-41" target="zfnSIglleL8xlRUQfMg4-38">
          <mxGeometry relative="1" as="geometry" />
        </mxCell>
        <mxCell id="zfnSIglleL8xlRUQfMg4-41" value="Add Event" style="ellipse;whiteSpace=wrap;html=1;fontSize=16;" vertex="1" parent="dNxyNK7c78bLwvsdeMH5-11">
          <mxGeometry x="120" y="210" width="90" height="40" as="geometry" />
        </mxCell>
        <mxCell id="zfnSIglleL8xlRUQfMg4-48" style="edgeStyle=none;curved=1;rounded=0;orthogonalLoop=1;jettySize=auto;html=1;fontSize=12;startSize=8;endSize=8;" edge="1" parent="dNxyNK7c78bLwvsdeMH5-11" source="zfnSIglleL8xlRUQfMg4-40" target="zfnSIglleL8xlRUQfMg4-34">
          <mxGeometry relative="1" as="geometry" />
        </mxCell>
        <mxCell id="zfnSIglleL8xlRUQfMg4-40" value="Upload File" style="ellipse;whiteSpace=wrap;html=1;fontSize=16;" vertex="1" parent="dNxyNK7c78bLwvsdeMH5-11">
          <mxGeometry x="230" y="210" width="100" height="40" as="geometry" />
        </mxCell>
        <mxCell id="zfnSIglleL8xlRUQfMg4-39" value="Delete Event" style="ellipse;whiteSpace=wrap;html=1;fontSize=16;" vertex="1" parent="dNxyNK7c78bLwvsdeMH5-11">
          <mxGeometry x="440" y="260" width="90" height="50" as="geometry" />
        </mxCell>
        <mxCell id="zfnSIglleL8xlRUQfMg4-38" value="Event List" style="ellipse;whiteSpace=wrap;html=1;fontSize=16;" vertex="1" parent="dNxyNK7c78bLwvsdeMH5-11">
          <mxGeometry x="115" y="280" width="100" height="40" as="geometry" />
        </mxCell>
        <mxCell id="zfnSIglleL8xlRUQfMg4-36" value="Delete File" style="ellipse;whiteSpace=wrap;html=1;fontSize=16;" vertex="1" parent="dNxyNK7c78bLwvsdeMH5-11">
          <mxGeometry x="450" y="210" width="100" height="40" as="geometry" />
        </mxCell>
        <mxCell id="zfnSIglleL8xlRUQfMg4-35" value="Task List" style="ellipse;whiteSpace=wrap;html=1;fontSize=16;" vertex="1" parent="dNxyNK7c78bLwvsdeMH5-11">
          <mxGeometry x="10" y="320" width="90" height="40" as="geometry" />
        </mxCell>
        <mxCell id="zfnSIglleL8xlRUQfMg4-34" value="File List" style="ellipse;whiteSpace=wrap;html=1;fontSize=16;" vertex="1" parent="dNxyNK7c78bLwvsdeMH5-11">
          <mxGeometry x="235" y="320" width="90" height="40" as="geometry" />
        </mxCell>
      </root>
    </mxGraphModel>
  </diagram>
</mxfile>
